<svg xmlns="http://www.w3.org/2000/svg" width="160" height="120" viewBox="0 0 160 120">
  <rect width="160" height="120" fill="#F4E4BC"/>
  <rect x="4" y="4" width="152" height="112" fill="none" stroke="#704214" stroke-width="1.5" rx="2"/>
  <!-- aged stain -->
  <circle cx="130" cy="25" r="20" fill="#D4B483" opacity="0.3"/>
  <circle cx="30" cy="90" r="15" fill="#C4A46D" opacity="0.2"/>
  <!-- title bar -->
  <rect x="15" y="12" width="80" height="6" rx="1" fill="#704214" opacity="0.6"/>
  <rect x="15" y="22" width="55" height="3" rx="1" fill="#704214" opacity="0.3"/>
  <!-- cross-hatch diagram -->
  <circle cx="50" cy="55" r="22" fill="none" stroke="#704214" stroke-width="1"/>
  <line x1="30" y1="45" x2="70" y2="65" stroke="#704214" stroke-width="0.5" opacity="0.5"/>
  <line x1="30" y1="50" x2="70" y2="70" stroke="#704214" stroke-width="0.5" opacity="0.5"/>
  <line x1="30" y1="55" x2="70" y2="75" stroke="#704214" stroke-width="0.5" opacity="0.5"/>
  <line x1="35" y1="40" x2="65" y2="70" stroke="#704214" stroke-width="0.5" opacity="0.4"/>
  <!-- annotation lines -->
  <line x1="72" y1="50" x2="95" y2="42" stroke="#704214" stroke-width="0.7"/>
  <rect x="96" y="39" width="40" height="3" rx="1" fill="#704214" opacity="0.4"/>
  <line x1="60" y1="73" x2="95" y2="78" stroke="#704214" stroke-width="0.7"/>
  <rect x="96" y="76" width="35" height="3" rx="1" fill="#704214" opacity="0.4"/>
  <!-- numbered labels -->
  <circle cx="95" cy="42" r="5" fill="none" stroke="#8B4513" stroke-width="0.7"/>
  <text x="95" y="44" text-anchor="middle" fill="#8B4513" font-size="6" font-family="serif">1</text>
  <circle cx="95" cy="78" r="5" fill="none" stroke="#8B4513" stroke-width="0.7"/>
  <text x="95" y="80" text-anchor="middle" fill="#8B4513" font-size="6" font-family="serif">2</text>
  <!-- bottom text lines -->
  <rect x="15" y="95" width="100" height="2.5" rx="1" fill="#704214" opacity="0.25"/>
  <rect x="15" y="101" width="85" height="2.5" rx="1" fill="#704214" opacity="0.25"/>
  <rect x="15" y="107" width="60" height="2.5" rx="1" fill="#704214" opacity="0.25"/>
</svg>