<svg xmlns="http://www.w3.org/2000/svg" width="160" height="120" viewBox="0 0 160 120">
  <rect width="160" height="120" fill="#FDF8F0"/>
  <!-- ornate border -->
  <path d="M10 5 Q80 -2 150 5 Q157 60 150 115 Q80 122 10 115 Q3 60 10 5Z" fill="none" stroke="#7B6D4E" stroke-width="1.5"/>
  <path d="M14 9 Q80 3 146 9 Q152 60 146 111 Q80 117 14 111 Q8 60 14 9Z" fill="none" stroke="#7B6D4E" stroke-width="0.5" opacity="0.4"/>
  <!-- flowing vine -->
  <path d="M20 30 Q40 20 50 35 Q60 50 45 60 Q30 70 40 85 Q50 100 35 110" fill="none" stroke="#6B8E6B" stroke-width="1.5" opacity="0.7"/>
  <ellipse cx="50" cy="35" rx="8" ry="5" fill="#C4927A" opacity="0.4"/>
  <ellipse cx="45" cy="60" rx="7" ry="4" fill="#C4927A" opacity="0.3"/>
  <ellipse cx="40" cy="85" rx="9" ry="5" fill="#C4927A" opacity="0.35"/>
  <!-- title area -->
  <rect x="60" y="18" width="80" height="7" rx="2" fill="#7B6D4E" opacity="0.5"/>
  <!-- stained glass panels -->
  <rect x="60" y="32" width="35" height="30" rx="3" fill="#A0C4A0" opacity="0.25" stroke="#7B6D4E" stroke-width="0.7"/>
  <rect x="100" y="32" width="35" height="30" rx="3" fill="#B8A07A" opacity="0.25" stroke="#7B6D4E" stroke-width="0.7"/>
  <rect x="60" y="68" width="35" height="30" rx="3" fill="#8EB8C4" opacity="0.25" stroke="#7B6D4E" stroke-width="0.7"/>
  <rect x="100" y="68" width="35" height="30" rx="3" fill="#C4927A" opacity="0.25" stroke="#7B6D4E" stroke-width="0.7"/>
  <!-- decorative curves inside panels -->
  <path d="M65 42 Q77 38 90 48" fill="none" stroke="#7B6D4E" stroke-width="0.6" opacity="0.5"/>
  <path d="M105 42 Q117 38 130 48" fill="none" stroke="#7B6D4E" stroke-width="0.6" opacity="0.5"/>
  <!-- gold accents -->
  <circle cx="60" cy="32" r="2" fill="#C9A84C" opacity="0.6"/>
  <circle cx="95" cy="32" r="2" fill="#C9A84C" opacity="0.6"/>
  <circle cx="60" cy="68" r="2" fill="#C9A84C" opacity="0.6"/>
  <circle cx="135" cy="68" r="2" fill="#C9A84C" opacity="0.6"/>
</svg>