<svg xmlns="http://www.w3.org/2000/svg" width="160" height="120" viewBox="0 0 160 120">
  <rect width="160" height="120" fill="#FFF0F5"/>
  <!-- sparkle bg -->
  <polygon points="25,15 26,12 27,15 30,16 27,17 26,20 25,17 22,16" fill="#FFD700" opacity="0.4"/>
  <polygon points="140,20 141,17 142,20 145,21 142,22 141,25 140,22 137,21" fill="#FFD700" opacity="0.3"/>
  <polygon points="130,95 131,92 132,95 135,96 132,97 131,100 130,97 127,96" fill="#FFD700" opacity="0.35"/>
  <polygon points="15,80 16,77 17,80 20,81 17,82 16,85 15,82 12,81" fill="#FFD700" opacity="0.3"/>
  <!-- cute cloud title -->
  <ellipse cx="80" cy="18" rx="50" ry="12" fill="#FFF" opacity="0.8"/>
  <circle cx="40" cy="15" r="8" fill="#FFF" opacity="0.8"/>
  <circle cx="120" cy="15" r="8" fill="#FFF" opacity="0.8"/>
  <rect x="50" y="13" width="60" height="5" rx="2" fill="#E91E8F" opacity="0.5"/>
  <!-- main kawaii character -->
  <ellipse cx="50" cy="60" rx="25" ry="22" fill="#FFB6C1"/>
  <!-- eyes -->
  <ellipse cx="42" cy="55" rx="4" ry="5" fill="#1A1A1A"/>
  <ellipse cx="58" cy="55" rx="4" ry="5" fill="#1A1A1A"/>
  <!-- eye shine -->
  <circle cx="40" cy="53" r="2" fill="#FFF"/>
  <circle cx="56" cy="53" r="2" fill="#FFF"/>
  <!-- blush -->
  <ellipse cx="36" cy="63" rx="5" ry="3" fill="#FF69B4" opacity="0.4"/>
  <ellipse cx="64" cy="63" rx="5" ry="3" fill="#FF69B4" opacity="0.4"/>
  <!-- mouth -->
  <path d="M46 66 Q50 70 54 66" fill="none" stroke="#1A1A1A" stroke-width="1.5" stroke-linecap="round"/>
  <!-- info bubbles -->
  <rect x="88" y="38" width="58" height="18" rx="9" fill="#98D8C8" opacity="0.7"/>
  <rect x="94" y="43" width="40" height="3" rx="1" fill="#FFF" opacity="0.7"/>
  <rect x="94" y="49" width="30" height="3" rx="1" fill="#FFF" opacity="0.5"/>
  <rect x="88" y="62" width="58" height="18" rx="9" fill="#E6E6FA" opacity="0.7"/>
  <rect x="94" y="67" width="38" height="3" rx="1" fill="#FFF" opacity="0.7"/>
  <rect x="94" y="73" width="28" height="3" rx="1" fill="#FFF" opacity="0.5"/>
  <!-- bottom hearts -->
  <path d="M30 95 Q30 90 35 90 Q40 90 40 95 Q40 100 35 105 Q30 100 30 95Z" fill="#FF69B4" opacity="0.3"/>
  <path d="M60 98 Q60 93 65 93 Q70 93 70 98 Q70 103 65 108 Q60 103 60 98Z" fill="#FF69B4" opacity="0.25"/>
  <!-- small stars -->
  <circle cx="100" cy="95" r="3" fill="#FFD700" opacity="0.3"/>
  <circle cx="115" cy="100" r="2" fill="#FFD700" opacity="0.25"/>
</svg>