<svg xmlns="http://www.w3.org/2000/svg" width="160" height="120" viewBox="0 0 160 120">
  <rect width="160" height="120" fill="#1A1A1A"/>
  <!-- organized objects grid - top-down view -->
  <!-- row 1 -->
  <rect x="12" y="10" width="22" height="22" rx="2" fill="#E5E5E5"/>
  <rect x="40" y="10" width="22" height="22" rx="2" fill="#4A90D9"/>
  <rect x="68" y="10" width="22" height="22" rx="11" fill="#E07A5F"/>
  <rect x="96" y="10" width="50" height="22" rx="2" fill="#2D2D2D" stroke="#555" stroke-width="0.5"/>
  <rect x="100" y="14" width="42" height="4" rx="1" fill="#888"/>
  <rect x="100" y="22" width="30" height="4" rx="1" fill="#666"/>
  <!-- row 2 -->
  <rect x="12" y="38" width="50" height="10" rx="2" fill="#F5A623"/>
  <rect x="68" y="38" width="10" height="10" rx="5" fill="#81B29A"/>
  <rect x="84" y="38" width="10" height="10" rx="1" fill="#C4C4C4"/>
  <rect x="100" y="38" width="22" height="10" rx="2" fill="#7C3AED" opacity="0.7"/>
  <rect x="128" y="38" width="18" height="10" rx="2" fill="#E5E5E5"/>
  <!-- row 3 -->
  <rect x="12" y="54" width="16" height="28" rx="2" fill="#2D2D2D" stroke="#555" stroke-width="0.5"/>
  <rect x="15" y="58" width="10" height="16" rx="1" fill="#3A7BD5"/>
  <rect x="34" y="54" width="28" height="28" rx="14" fill="none" stroke="#E5E5E5" stroke-width="1.5"/>
  <circle cx="48" cy="68" r="5" fill="#E5E5E5" opacity="0.5"/>
  <rect x="68" y="54" width="28" height="28" rx="2" fill="#333" stroke="#555" stroke-width="0.5"/>
  <line x1="72" y1="62" x2="92" y2="62" stroke="#888" stroke-width="0.7"/>
  <line x1="72" y1="68" x2="88" y2="68" stroke="#888" stroke-width="0.7"/>
  <line x1="72" y1="74" x2="90" y2="74" stroke="#888" stroke-width="0.7"/>
  <rect x="102" y="54" width="44" height="28" rx="2" fill="#E07A5F" opacity="0.15" stroke="#E07A5F" stroke-width="0.8"/>
  <!-- row 4 -->
  <rect x="12" y="88" width="40" height="22" rx="2" fill="#81B29A" opacity="0.3" stroke="#81B29A" stroke-width="0.8"/>
  <rect x="58" y="88" width="22" height="22" rx="2" fill="#F5A623" opacity="0.7"/>
  <circle cx="69" cy="99" r="6" fill="#FFF" opacity="0.3"/>
  <rect x="86" y="88" width="14" height="22" rx="2" fill="#7C3AED" opacity="0.5"/>
  <rect x="106" y="88" width="40" height="22" rx="2" fill="#E5E5E5" opacity="0.2" stroke="#555" stroke-width="0.5"/>
</svg>