<svg xmlns="http://www.w3.org/2000/svg" width="160" height="120" viewBox="0 0 160 120">
  <rect width="160" height="120" fill="#0F0F2D"/>
  <!-- scanlines -->
  <pattern id="scanlines" width="160" height="4" patternUnits="userSpaceOnUse">
    <rect width="160" height="2" fill="transparent"/>
    <rect y="2" width="160" height="2" fill="#000" opacity="0.15"/>
  </pattern>
  <rect width="160" height="120" fill="url(#scanlines)"/>
  <!-- pixel title bar -->
  <rect x="8" y="6" width="6" height="6" fill="#FF6B6B"/>
  <rect x="14" y="6" width="6" height="6" fill="#FF6B6B"/>
  <rect x="20" y="6" width="6" height="6" fill="#FF6B6B"/>
  <rect x="26" y="6" width="6" height="6" fill="#FF6B6B"/>
  <rect x="32" y="6" width="6" height="6" fill="#FF6B6B"/>
  <rect x="38" y="6" width="6" height="6" fill="#FF6B6B"/>
  <rect x="44" y="6" width="6" height="6" fill="#FF6B6B"/>
  <rect x="50" y="6" width="6" height="6" fill="#FF6B6B"/>
  <rect x="56" y="6" width="6" height="6" fill="#FF6B6B"/>
  <!-- pixel character (small) -->
  <rect x="18" y="24" width="6" height="6" fill="#FFD93D"/>
  <rect x="24" y="24" width="6" height="6" fill="#FFD93D"/>
  <rect x="12" y="30" width="6" height="6" fill="#FFD93D"/>
  <rect x="18" y="30" width="6" height="6" fill="#333"/>
  <rect x="24" y="30" width="6" height="6" fill="#FFD93D"/>
  <rect x="30" y="30" width="6" height="6" fill="#333"/>
  <rect x="36" y="30" width="6" height="6" fill="#FFD93D"/>
  <rect x="12" y="36" width="6" height="6" fill="#4ECDC4"/>
  <rect x="18" y="36" width="6" height="6" fill="#4ECDC4"/>
  <rect x="24" y="36" width="6" height="6" fill="#4ECDC4"/>
  <rect x="30" y="36" width="6" height="6" fill="#4ECDC4"/>
  <rect x="36" y="36" width="6" height="6" fill="#4ECDC4"/>
  <rect x="18" y="42" width="6" height="6" fill="#1A1A6B"/>
  <rect x="30" y="42" width="6" height="6" fill="#1A1A6B"/>
  <!-- pixel text boxes -->
  <rect x="60" y="20" width="90" height="6" fill="#4ECDC4" opacity="0.7"/>
  <rect x="60" y="30" width="70" height="4" fill="#4ECDC4" opacity="0.3"/>
  <rect x="60" y="38" width="80" height="4" fill="#4ECDC4" opacity="0.3"/>
  <!-- pixel bar chart -->
  <rect x="14" y="90" width="12" height="20" fill="#FF6B6B"/>
  <rect x="30" y="80" width="12" height="30" fill="#FFD93D"/>
  <rect x="46" y="70" width="12" height="40" fill="#4ECDC4"/>
  <rect x="62" y="85" width="12" height="25" fill="#FF6B6B"/>
  <rect x="78" y="60" width="12" height="50" fill="#FFD93D"/>
  <!-- pixel info block -->
  <rect x="100" y="56" width="50" height="6" fill="#FF6B6B" opacity="0.7"/>
  <rect x="100" y="66" width="40" height="4" fill="#FFF" opacity="0.2"/>
  <rect x="100" y="74" width="45" height="4" fill="#FFF" opacity="0.2"/>
  <rect x="100" y="82" width="35" height="4" fill="#FFF" opacity="0.2"/>
  <!-- pixel hearts (lives) -->
  <rect x="100" y="96" width="6" height="6" fill="#FF6B6B"/>
  <rect x="106" y="90" width="6" height="6" fill="#FF6B6B"/>
  <rect x="112" y="96" width="6" height="6" fill="#FF6B6B"/>
  <rect x="106" y="96" width="6" height="6" fill="#FF6B6B"/>
  <rect x="106" y="102" width="6" height="6" fill="#FF6B6B"/>
  <rect x="122" y="96" width="6" height="6" fill="#FF6B6B"/>
  <rect x="128" y="90" width="6" height="6" fill="#FF6B6B"/>
  <rect x="134" y="96" width="6" height="6" fill="#FF6B6B"/>
  <rect x="128" y="96" width="6" height="6" fill="#FF6B6B"/>
  <rect x="128" y="102" width="6" height="6" fill="#FF6B6B"/>
</svg>