<svg xmlns="http://www.w3.org/2000/svg" width="160" height="120" viewBox="0 0 160 120">
  <rect width="160" height="120" fill="#FFFFFF"/>
  <!-- browser chrome -->
  <rect x="0" y="0" width="160" height="16" fill="#F3F3F3" stroke="#E0E0E0" stroke-width="0.5"/>
  <circle cx="10" cy="8" r="3" fill="#E5E5E5"/>
  <circle cx="20" cy="8" r="3" fill="#E5E5E5"/>
  <circle cx="30" cy="8" r="3" fill="#E5E5E5"/>
  <rect x="45" y="4" width="70" height="8" rx="4" fill="#E5E5E5"/>
  <!-- nav bar -->
  <rect x="5" y="20" width="150" height="10" fill="#F8F8F8" stroke="#E0E0E0" stroke-width="0.5"/>
  <rect x="8" y="22" width="25" height="6" rx="2" fill="#9CA3AF" opacity="0.5"/>
  <rect x="38" y="23" width="18" height="4" rx="1" fill="#D1D5DB"/>
  <rect x="60" y="23" width="18" height="4" rx="1" fill="#D1D5DB"/>
  <rect x="82" y="23" width="18" height="4" rx="1" fill="#D1D5DB"/>
  <rect x="125" y="22" width="25" height="6" rx="3" fill="#3B82F6" opacity="0.6"/>
  <!-- hero section -->
  <rect x="5" y="34" width="150" height="25" fill="#F8F8F8" stroke="#E0E0E0" stroke-width="0.5"/>
  <rect x="40" y="38" width="80" height="5" rx="1" fill="#374151" opacity="0.4"/>
  <rect x="50" y="46" width="60" height="3" rx="1" fill="#9CA3AF" opacity="0.5"/>
  <rect x="60" y="52" width="40" height="3" rx="1" fill="#9CA3AF" opacity="0.4"/>
  <!-- image placeholder with X -->
  <rect x="5" y="63" width="45" height="35" fill="#F3F3F3" stroke="#D1D5DB" stroke-width="0.8"/>
  <line x1="5" y1="63" x2="50" y2="98" stroke="#D1D5DB" stroke-width="0.5"/>
  <line x1="50" y1="63" x2="5" y2="98" stroke="#D1D5DB" stroke-width="0.5"/>
  <!-- text content block -->
  <rect x="55" y="63" width="100" height="4" rx="1" fill="#374151" opacity="0.35"/>
  <rect x="55" y="71" width="95" height="3" rx="1" fill="#9CA3AF" opacity="0.4"/>
  <rect x="55" y="78" width="90" height="3" rx="1" fill="#9CA3AF" opacity="0.4"/>
  <rect x="55" y="85" width="80" height="3" rx="1" fill="#9CA3AF" opacity="0.35"/>
  <rect x="55" y="92" width="70" height="3" rx="1" fill="#9CA3AF" opacity="0.3"/>
  <!-- annotation callout -->
  <line x1="50" y1="80" x2="40" y2="105" stroke="#EF4444" stroke-width="0.8" stroke-dasharray="2,2"/>
  <circle cx="50" cy="80" r="2" fill="none" stroke="#EF4444" stroke-width="0.8"/>
  <rect x="15" y="103" width="50" height="10" rx="2" fill="#FFF" stroke="#EF4444" stroke-width="0.7"/>
  <rect x="18" y="106" width="35" height="3" rx="1" fill="#EF4444" opacity="0.3"/>
  <!-- redline spec -->
  <line x1="5" y1="61" x2="50" y2="61" stroke="#3B82F6" stroke-width="0.5" stroke-dasharray="1,1"/>
  <text x="28" y="60" text-anchor="middle" fill="#3B82F6" font-size="4" font-family="monospace">320px</text>
</svg>